<svg id="svg" xmlns="http://www.w3.org/2000/svg" xmlns:xlink="http://www.w3.org/1999/xlink" width="400" height="242.87616511318242" viewBox="0, 0, 400,242.87616511318242"><g id="svgg"><path id="path0" d="M51.026 16.914 L 13.903 17.051 16.874 22.241 C 18.508 25.095,21.166 29.707,22.781 32.490 C 24.396 35.273,26.598 39.108,27.675 41.012 C 28.752 42.916,31.033 46.871,32.743 49.800 C 36.971 57.042,41.236 64.440,43.949 69.241 C 46.066 72.985,47.223 74.981,54.761 87.883 C 56.387 90.666,58.584 94.501,59.644 96.405 C 63.325 103.019,62.759 102.595,68.436 102.994 C 71.204 103.189,74.974 103.820,76.814 104.397 C 80.784 105.641,80.426 105.593,80.426 104.881 C 80.426 104.343,78.056 100.121,67.746 82.290 C 65.544 78.482,62.431 73.089,60.828 70.306 C 59.224 67.523,55.629 61.292,52.838 56.458 C 41.257 36.399,38.349 31.311,38.349 31.107 C 38.349 30.989,111.445 30.892,200.785 30.892 L 363.221 30.892 361.548 33.688 C 360.627 35.226,358.993 38.043,357.916 39.947 C 356.839 41.851,353.241 48.083,349.920 53.795 C 346.599 59.507,343.004 65.739,341.930 67.643 C 340.857 69.547,337.262 75.779,333.941 81.491 C 330.620 87.204,327.020 93.435,325.940 95.340 C 324.860 97.244,322.756 100.943,321.264 103.561 L 318.552 108.321 322.126 109.465 C 324.091 110.094,326.987 111.266,328.560 112.070 C 331.894 113.774,331.422 114.106,335.308 107.324 C 336.986 104.394,340.642 98.043,343.432 93.209 C 346.222 88.375,349.818 82.144,351.422 79.361 C 353.026 76.578,356.627 70.346,359.424 65.513 C 362.222 60.679,365.388 55.166,366.460 53.262 C 367.533 51.358,371.127 45.126,374.448 39.414 C 377.768 33.702,381.355 27.470,382.417 25.566 C 383.479 23.662,385.011 21.063,385.821 19.790 C 386.631 18.517,387.201 17.383,387.088 17.270 C 386.839 17.021,103.457 16.721,51.026 16.914 M207.989 41.270 C 201.038 44.094,197.164 50.213,197.796 57.369 C 199.751 79.510,197.936 87.593,189.747 93.222 C 187.144 95.011,187.556 95.522,191.355 95.217 C 200.426 94.489,205.111 89.313,210.724 73.816 C 213.288 66.736,216.100 62.116,218.800 60.547 C 221.192 59.157,221.355 59.598,219.676 62.911 C 215.142 71.859,214.338 78.263,216.710 86.551 C 220.325 99.182,218.127 106.601,209.209 111.866 C 204.169 114.842,204.498 113.859,204.756 125.166 C 204.879 130.586,204.998 156.531,205.020 182.823 L 205.060 230.626 226.631 230.626 C 238.495 230.626,248.202 230.518,248.202 230.385 C 248.202 230.253,247.365 228.239,246.340 225.910 C 239.905 211.273,239.979 198.614,246.550 189.908 C 249.649 185.802,252.996 179.019,252.996 176.843 C 252.996 176.250,253.236 175.766,253.529 175.766 C 253.822 175.766,254.064 176.545,254.067 177.497 C 254.122 194.466,270.509 217.387,280.280 214.163 C 285.250 212.522,295.523 196.918,302.445 180.496 C 307.370 168.809,309.517 164.281,311.011 162.421 C 312.714 160.302,312.653 159.787,310.699 159.787 C 310.017 159.787,308.008 159.285,306.236 158.672 L 303.014 157.557 300.481 159.870 C 299.089 161.143,296.318 163.599,294.325 165.330 C 288.511 170.377,284.223 175.809,281.116 182.059 L 278.319 187.687 277.136 183.990 C 276.316 181.428,275.942 178.903,275.919 175.766 C 275.869 168.905,274.561 165.042,269.248 156.059 C 267.751 153.527,267.472 152.472,267.192 148.289 C 266.621 139.749,263.425 132.955,257.884 128.502 C 255.823 126.846,247.385 121.971,246.579 121.971 C 246.343 121.971,245.442 120.712,244.576 119.174 C 242.543 115.564,241.606 108.310,243.236 108.806 C 243.771 108.968,246.584 109.970,249.488 111.032 C 255.852 113.359,255.649 113.419,257.137 108.797 C 257.795 106.754,258.806 104.654,259.383 104.132 C 259.960 103.610,260.583 102.377,260.768 101.392 C 261.089 99.682,261.210 99.601,263.441 99.601 C 266.187 99.601,266.091 100.183,264.723 91.800 L 263.668 85.331 264.824 82.213 C 266.627 77.350,266.582 65.283,264.747 61.518 C 259.668 51.097,241.733 44.122,232.224 48.868 C 230.905 49.526,229.758 49.858,229.673 49.605 C 227.040 41.719,216.684 37.738,207.989 41.270 M157.750 41.582 C 155.009 42.121,151.050 43.964,146.937 46.614 C 145.289 47.676,142.849 48.828,141.514 49.173 L 139.088 49.800 141.278 55.062 L 143.467 60.324 141.539 66.159 C 140.066 70.618,139.733 72.267,140.128 73.148 C 140.526 74.035,140.159 75.742,138.540 80.543 L 136.435 86.785 138.231 87.122 C 139.922 87.439,140.062 87.635,140.627 90.467 C 140.957 92.122,141.567 94.674,141.984 96.138 C 142.400 97.603,142.982 99.792,143.278 101.003 C 144.128 104.484,144.672 104.702,150.610 103.952 L 155.724 103.306 157.772 105.306 C 161.150 108.604,162.289 114.303,160.408 118.491 C 159.495 120.524,159.229 120.686,153.388 122.752 C 148.725 124.402,147.250 125.154,147.027 125.996 C 146.333 128.623,143.988 130.395,136.283 134.114 C 125.079 139.520,119.674 145.186,116.985 154.345 C 116.060 157.495,116.270 158.599,117.917 159.265 C 118.857 159.645,118.885 159.725,118.088 159.753 C 111.967 159.970,104.927 170.731,104.927 179.870 L 104.927 182.666 102.455 181.099 C 101.095 180.236,98.399 179.007,96.463 178.366 C 91.569 176.746,85.588 173.971,83.405 172.305 C 81.697 171.003,81.464 170.958,80.065 171.666 C 78.356 172.531,74.542 173.427,70.439 173.927 C 68.901 174.114,67.643 174.364,67.643 174.483 C 67.643 175.243,76.864 193.535,79.552 198.106 C 86.231 209.465,97.473 218.328,104.466 217.748 C 108.453 217.417,110.969 215.622,120.373 206.401 C 124.621 202.235,129.294 198.155,130.759 197.334 C 140.704 191.758,146.962 182.826,145.124 176.831 L 144.716 175.499 146.027 176.698 C 146.821 177.423,148.019 177.896,149.060 177.896 C 152.324 177.896,154.999 182.225,157.925 192.247 C 160.032 199.463,159.660 205.297,156.164 219.840 L 153.572 230.626 176.386 230.626 L 199.201 230.626 199.181 213.715 C 199.170 204.414,198.947 178.153,198.686 155.358 L 198.211 113.912 194.299 109.818 C 190.929 106.290,190.151 105.097,188.681 101.197 C 185.638 93.127,185.573 93.619,191.291 81.491 C 195.269 73.055,195.524 71.707,194.147 66.422 C 189.774 49.630,173.453 38.492,157.750 41.582 M59.387 116.833 C 38.534 123.729,32.449 148.700,48.063 163.305 C 67.021 181.039,97.565 165.070,93.849 139.368 C 91.575 123.640,73.851 112.050,59.387 116.833 M309.236 121.468 C 298.204 124.229,291.636 137.121,296.227 147.004 C 303.304 162.241,323.609 162.296,330.659 147.097 C 336.821 133.812,323.517 117.895,309.236 121.468 M71.886 128.140 C 82.858 131.398,86.356 146.470,78.064 154.762 C 69.721 163.104,54.605 159.444,51.364 148.297 C 47.644 135.501,59.026 124.321,71.886 128.140 M316.929 129.424 C 324.325 131.479,326.629 142.212,320.839 147.642 C 315.303 152.833,306.781 151.076,303.540 144.075 C 299.697 135.774,307.815 126.892,316.929 129.424 M61.794 130.470 C 52.328 133.737,49.771 146.327,57.123 153.462 C 64.091 160.225,77.133 157.072,79.862 147.965 C 83.355 136.305,73.246 126.517,61.794 130.470 M309.017 131.388 C 300.492 135.589,303.764 149.287,313.293 149.287 C 323.134 149.287,326.741 137.224,318.550 131.704 C 316.350 130.221,311.698 130.067,309.017 131.388 M315.846 137.417 C 317.955 139.526,316.421 143.276,313.449 143.276 C 311.739 143.276,309.987 141.523,309.987 139.814 C 309.987 138.104,311.739 136.352,313.449 136.352 C 314.181 136.352,315.260 136.831,315.846 137.417 M68.949 138.703 C 72.341 140.120,73.049 144.343,70.347 147.045 C 65.582 151.810,58.345 144.961,62.779 139.884 C 64.470 137.949,66.303 137.598,68.949 138.703 " stroke="none" fill="#000000" fill-rule="evenodd"></path></g></svg>